<svg width="1244" height="276" viewBox="0 0 1244 276" fill="none" xmlns="http://www.w3.org/2000/svg">
<mask id="mask0_2002_3" style="mask-type:luminance" maskUnits="userSpaceOnUse" x="170" y="0" width="1074" height="276">
<path d="M1243.91 0H170.578V276H1243.91V0Z" fill="white"/>
</mask>
<g mask="url(#mask0_2002_3)">
<path d="M220.548 135.684H230.403C240.054 135.684 247.173 134.08 251.757 130.871C256.35 127.653 258.653 122.595 258.653 115.705C258.653 108.871 256.304 104.012 251.611 101.121C246.913 98.236 239.653 96.7881 229.819 96.7881H220.548V135.684ZM220.548 160.496V215.726H190.048V71.7881H231.986C251.538 71.7881 266.007 75.3506 275.382 82.4756C284.767 89.6006 289.465 100.413 289.465 114.913C289.465 123.387 287.132 130.924 282.465 137.517C277.809 144.101 271.22 149.267 262.694 153.017C284.345 185.382 298.455 206.283 305.028 215.726H271.153L236.798 160.496H220.548Z" fill="white"/>
<path d="M390.659 215.725L384.846 200.767H384.076C379.018 207.132 373.815 211.548 368.471 214.017C363.122 216.475 356.143 217.705 347.534 217.705C336.977 217.705 328.659 214.684 322.576 208.642C316.503 202.6 313.471 194.007 313.471 182.85C313.471 171.158 317.555 162.538 325.721 156.996C333.899 151.455 346.227 148.387 362.701 147.788L381.805 147.205V142.371C381.805 131.22 376.096 125.642 364.68 125.642C355.872 125.642 345.534 128.304 333.659 133.621L323.721 113.33C336.388 106.705 350.43 103.392 365.846 103.392C380.622 103.392 391.951 106.611 399.826 113.038C407.701 119.47 411.638 129.246 411.638 142.371V215.725H390.659ZM381.805 164.725L370.18 165.121C361.456 165.387 354.961 166.965 350.701 169.85C346.435 172.741 344.305 177.137 344.305 183.038C344.305 191.512 349.159 195.746 358.867 195.746C365.826 195.746 371.388 193.746 375.555 189.746C379.721 185.736 381.805 180.413 381.805 173.788V164.725Z" fill="white"/>
<path d="M544.137 215.726H514.116V151.434C514.116 143.491 512.699 137.538 509.866 133.58C507.043 129.611 502.553 127.621 496.387 127.621C487.98 127.621 481.907 130.429 478.157 136.038C474.418 141.653 472.553 150.95 472.553 163.934V215.726H442.532V105.663H465.47L469.512 119.746H471.178C474.522 114.429 479.137 110.408 485.012 107.684C490.887 104.965 497.564 103.601 505.053 103.601C517.845 103.601 527.553 107.069 534.178 113.996C540.814 120.913 544.137 130.903 544.137 143.955V215.726Z" fill="white"/>
<path d="M603.886 155.871L616.969 139.121L647.782 105.663H681.657L637.948 153.413L684.303 215.726H649.657L617.948 171.121L605.053 181.455V215.726H575.032V62.5381H605.053V130.871L603.49 155.871H603.886Z" fill="white"/>
<path d="M813.381 215.726H796.652V147.996H720.839V215.726H704.11V71.7881H720.839V133.038H796.652V71.7881H813.381V215.726Z" fill="white"/>
<path d="M943.518 161.684C943.518 179.267 939.086 193.007 930.226 202.892C921.362 212.767 909.127 217.705 893.518 217.705C883.862 217.705 875.294 215.444 867.81 210.913C860.32 206.371 854.544 199.871 850.476 191.413C846.403 182.944 844.372 173.033 844.372 161.684C844.372 144.09 848.768 130.387 857.56 120.58C866.362 110.762 878.58 105.851 894.205 105.851C909.289 105.851 921.273 110.871 930.164 120.913C939.065 130.955 943.518 144.549 943.518 161.684ZM861.31 161.684C861.31 175.465 864.065 185.965 869.58 193.184C875.091 200.408 883.195 204.017 893.893 204.017C904.601 204.017 912.726 200.429 918.268 193.246C923.81 186.054 926.58 175.533 926.58 161.684C926.58 147.965 923.81 137.549 918.268 130.434C912.726 123.309 904.539 119.746 893.705 119.746C883.007 119.746 874.935 123.262 869.476 130.288C864.028 137.304 861.31 147.767 861.31 161.684Z" fill="white"/>
<path d="M1007.02 204.205C1009.89 204.205 1012.67 203.997 1015.37 203.58C1018.06 203.153 1020.19 202.705 1021.77 202.247V214.747C1020 215.596 1017.4 216.293 1013.95 216.851C1010.51 217.418 1007.4 217.705 1004.64 217.705C983.766 217.705 973.329 206.705 973.329 184.705V120.517H957.871V112.642L973.329 105.851L980.225 82.8091H989.683V107.83H1021V120.517H989.683V184.017C989.683 190.517 991.225 195.512 994.308 198.997C997.391 202.471 1001.63 204.205 1007.02 204.205Z" fill="white"/>
<path d="M1088.92 217.705C1072.96 217.705 1060.37 212.851 1051.15 203.142C1041.92 193.424 1037.31 179.929 1037.31 162.663C1037.31 145.278 1041.59 131.465 1050.17 121.226C1058.73 110.976 1070.23 105.851 1084.67 105.851C1098.19 105.851 1108.9 110.304 1116.77 119.205C1124.65 128.095 1128.58 139.825 1128.58 154.392V164.726H1054.25C1054.58 177.392 1057.78 187.012 1063.85 193.58C1069.92 200.137 1078.47 203.413 1089.5 203.413C1101.11 203.413 1112.59 200.991 1123.96 196.142V210.705C1118.18 213.205 1112.71 214.996 1107.56 216.08C1102.41 217.163 1096.19 217.705 1088.92 217.705ZM1084.48 119.538C1075.81 119.538 1068.9 122.366 1063.75 128.017C1058.59 133.658 1055.56 141.465 1054.65 151.434H1111.06C1111.06 141.132 1108.76 133.241 1104.17 127.767C1099.57 122.283 1093.01 119.538 1084.48 119.538Z" fill="white"/>
<path d="M1172.77 215.726H1156.44V62.5381H1172.77V215.726Z" fill="white"/>
</g>
<mask id="mask1_2002_3" style="mask-type:luminance" maskUnits="userSpaceOnUse" x="0" y="73" width="146" height="146">
<path d="M0 73.1455H145.391V218.541H0V73.1455Z" fill="white"/>
</mask>
<g mask="url(#mask1_2002_3)">
<mask id="mask2_2002_3" style="mask-type:luminance" maskUnits="userSpaceOnUse" x="0" y="73" width="146" height="146">
<path d="M20 73.1455H125.391C130.698 73.1455 135.781 75.2549 139.536 79.0049C143.286 82.7549 145.391 87.8434 145.391 93.1455V198.541C145.391 203.843 143.286 208.932 139.536 212.682C135.781 216.432 130.698 218.541 125.391 218.541H20C14.6979 218.541 9.60938 216.432 5.85938 212.682C2.10938 208.932 0 203.843 0 198.541V93.1455C0 87.8434 2.10938 82.7549 5.85938 79.0049C9.60938 75.2549 14.6979 73.1455 20 73.1455Z" fill="white"/>
</mask>
<g mask="url(#mask2_2002_3)">
<mask id="mask3_2002_3" style="mask-type:luminance" maskUnits="userSpaceOnUse" x="-1" y="71" width="148" height="148">
<path d="M146.578 71.9995H-0.088623V218.666H146.578V71.9995Z" fill="white"/>
</mask>
<g mask="url(#mask3_2002_3)">
<mask id="mask4_2002_3" style="mask-type:luminance" maskUnits="userSpaceOnUse" x="0" y="73" width="146" height="146">
<path d="M0 73.1455H145.391V218.541H0V73.1455Z" fill="white"/>
</mask>
<g mask="url(#mask4_2002_3)">
<mask id="mask5_2002_3" style="mask-type:luminance" maskUnits="userSpaceOnUse" x="0" y="73" width="146" height="146">
<path d="M20 73.1455H125.391C130.698 73.1455 135.781 75.2549 139.536 79.0049C143.286 82.7549 145.391 87.8434 145.391 93.1455V198.541C145.391 203.843 143.286 208.932 139.536 212.682C135.781 216.432 130.698 218.541 125.391 218.541H20C14.6979 218.541 9.60938 216.432 5.85938 212.682C2.10938 208.932 0 203.843 0 198.541V93.1455C0 87.8434 2.10938 82.7549 5.85938 79.0049C9.60938 75.2549 14.6979 73.1455 20 73.1455Z" fill="white"/>
</mask>
<g mask="url(#mask5_2002_3)">
<path d="M0 73.1455H145.391V218.541H0V73.1455Z" fill="white"/>
</g>
</g>
</g>
</g>
</g>
<mask id="mask6_2002_3" style="mask-type:luminance" maskUnits="userSpaceOnUse" x="8" y="78" width="62" height="62">
<path d="M8.39062 78.9736H69.2448V140H8.39062V78.9736Z" fill="white"/>
</mask>
<g mask="url(#mask6_2002_3)">
<path d="M68.1823 108.885C44.1927 112.151 41.5573 114.786 38.2865 138.75C35.0156 114.786 32.375 112.151 8.39062 108.885C32.375 105.619 35.0156 102.984 38.2865 79.0205C41.5573 102.984 44.1927 105.619 68.1823 108.885Z" fill="#1D1D1B"/>
</g>
<mask id="mask7_2002_3" style="mask-type:luminance" maskUnits="userSpaceOnUse" x="11" y="88" width="127" height="125">
<path d="M11.9116 88H137.391V212.974H11.9116V88Z" fill="white"/>
</mask>
<g mask="url(#mask7_2002_3)">
<path d="M137.391 150.839C81.7762 154.432 78.8543 157.349 75.2345 212.927C71.6408 157.37 68.7189 154.453 13.0835 150.839C68.6981 147.245 71.6147 144.328 75.2345 88.75C78.8335 144.302 81.7502 147.219 137.391 150.839Z" fill="#1D1D1B"/>
</g>
</svg>
