<svg xmlns="http://www.w3.org/2000/svg" xmlns:xlink="http://www.w3.org/1999/xlink" width="2000" zoomAndPan="magnify" viewBox="0 0 1500 1499.999933" height="2000" preserveAspectRatio="xMidYMid meet" version="1.0"><defs><g/><clipPath id="fe0d50fbb1"><rect x="0" width="805" y="0" height="207"/></clipPath><clipPath id="29610f27a1"><path d="M 284.066406 700.859375 L 393.109375 700.859375 L 393.109375 809.90625 L 284.066406 809.90625 Z M 284.066406 700.859375 " clip-rule="nonzero"/></clipPath><clipPath id="5d8401675b"><path d="M 299.066406 700.859375 L 378.109375 700.859375 C 382.089844 700.859375 385.902344 702.441406 388.71875 705.253906 C 391.53125 708.066406 393.109375 711.882812 393.109375 715.859375 L 393.109375 794.90625 C 393.109375 798.882812 391.53125 802.699219 388.71875 805.511719 C 385.902344 808.324219 382.089844 809.90625 378.109375 809.90625 L 299.066406 809.90625 C 295.089844 809.90625 291.273438 808.324219 288.460938 805.511719 C 285.648438 802.699219 284.066406 798.882812 284.066406 794.90625 L 284.066406 715.859375 C 284.066406 711.882812 285.648438 708.066406 288.460938 705.253906 C 291.273438 702.441406 295.089844 700.859375 299.066406 700.859375 Z M 299.066406 700.859375 " clip-rule="nonzero"/></clipPath><clipPath id="4ce6a15d5d"><path d="M 0.0664062 0.859375 L 109.109375 0.859375 L 109.109375 109.90625 L 0.0664062 109.90625 Z M 0.0664062 0.859375 " clip-rule="nonzero"/></clipPath><clipPath id="af20b05d93"><path d="M 15.066406 0.859375 L 94.109375 0.859375 C 98.089844 0.859375 101.902344 2.441406 104.71875 5.253906 C 107.53125 8.066406 109.109375 11.882812 109.109375 15.859375 L 109.109375 94.90625 C 109.109375 98.882812 107.53125 102.699219 104.71875 105.511719 C 101.902344 108.324219 98.089844 109.90625 94.109375 109.90625 L 15.066406 109.90625 C 11.089844 109.90625 7.273438 108.324219 4.460938 105.511719 C 1.648438 102.699219 0.0664062 98.882812 0.0664062 94.90625 L 0.0664062 15.859375 C 0.0664062 11.882812 1.648438 8.066406 4.460938 5.253906 C 7.273438 2.441406 11.089844 0.859375 15.066406 0.859375 Z M 15.066406 0.859375 " clip-rule="nonzero"/></clipPath><clipPath id="1fe9fc7e00"><rect x="0" width="110" y="0" height="110"/></clipPath><clipPath id="d4c8a677ff"><path d="M 290.359375 705.230469 L 336 705.230469 L 336 751 L 290.359375 751 Z M 290.359375 705.230469 " clip-rule="nonzero"/></clipPath><clipPath id="fb9ad200db"><path d="M 293 712 L 387.109375 712 L 387.109375 805.730469 L 293 805.730469 Z M 293 712 " clip-rule="nonzero"/></clipPath></defs><g transform="matrix(1, 0, 0, 1, 412, 646)"><g clip-path="url(#fe0d50fbb1)"><g fill="#ffffff" fill-opacity="1"><g transform="translate(1.008965, 161.794018)"><g><path d="M 36.46875 -60.03125 L 43.859375 -60.03125 C 51.097656 -60.03125 56.4375 -61.234375 59.875 -63.640625 C 63.320312 -66.054688 65.046875 -69.847656 65.046875 -75.015625 C 65.046875 -80.140625 63.285156 -83.785156 59.765625 -85.953125 C 56.242188 -88.117188 50.796875 -89.203125 43.421875 -89.203125 L 36.46875 -89.203125 Z M 36.46875 -41.421875 L 36.46875 0 L 13.59375 0 L 13.59375 -107.953125 L 45.046875 -107.953125 C 59.710938 -107.953125 70.5625 -105.28125 77.59375 -99.9375 C 84.632812 -94.59375 88.15625 -86.484375 88.15625 -75.609375 C 88.15625 -69.253906 86.40625 -63.601562 82.90625 -58.65625 C 79.414062 -53.71875 74.472656 -49.84375 68.078125 -47.03125 C 84.316406 -22.757812 94.898438 -7.082031 99.828125 0 L 74.421875 0 L 48.65625 -41.421875 Z M 36.46875 -41.421875 "/></g></g></g><g fill="#ffffff" fill-opacity="1"><g transform="translate(100.826305, 161.794018)"><g><path d="M 64.234375 0 L 59.875 -11.21875 L 59.296875 -11.21875 C 55.503906 -6.445312 51.601562 -3.132812 47.59375 -1.28125 C 43.582031 0.5625 38.347656 1.484375 31.890625 1.484375 C 23.972656 1.484375 17.734375 -0.78125 13.171875 -5.3125 C 8.617188 -9.84375 6.34375 -16.289062 6.34375 -24.65625 C 6.34375 -33.425781 9.40625 -39.890625 15.53125 -44.046875 C 21.664062 -48.203125 30.910156 -50.503906 43.265625 -50.953125 L 57.59375 -51.390625 L 57.59375 -55.015625 C 57.59375 -63.378906 53.3125 -67.5625 44.75 -67.5625 C 38.144531 -67.5625 30.390625 -65.566406 21.484375 -61.578125 L 14.03125 -76.796875 C 23.53125 -81.765625 34.0625 -84.25 45.625 -84.25 C 56.707031 -84.25 65.203125 -81.835938 71.109375 -77.015625 C 77.015625 -72.191406 79.96875 -64.859375 79.96875 -55.015625 L 79.96875 0 Z M 57.59375 -38.25 L 48.875 -37.953125 C 42.332031 -37.753906 37.460938 -36.570312 34.265625 -34.40625 C 31.066406 -32.238281 29.46875 -28.941406 29.46875 -24.515625 C 29.46875 -18.160156 33.109375 -14.984375 40.390625 -14.984375 C 45.609375 -14.984375 49.78125 -16.484375 52.90625 -19.484375 C 56.03125 -22.492188 57.59375 -26.484375 57.59375 -31.453125 Z M 57.59375 -38.25 "/></g></g></g><g fill="#ffffff" fill-opacity="1"><g transform="translate(192.153265, 161.794018)"><g><path d="M 88.015625 0 L 65.5 0 L 65.5 -48.21875 C 65.5 -54.175781 64.4375 -58.640625 62.3125 -61.609375 C 60.195312 -64.585938 56.828125 -66.078125 52.203125 -66.078125 C 45.898438 -66.078125 41.34375 -63.972656 38.53125 -59.765625 C 35.726562 -55.554688 34.328125 -48.582031 34.328125 -38.84375 L 34.328125 0 L 11.8125 0 L 11.8125 -82.546875 L 29.015625 -82.546875 L 32.046875 -71.984375 L 33.296875 -71.984375 C 35.804688 -75.972656 39.265625 -78.988281 43.671875 -81.03125 C 48.078125 -83.070312 53.085938 -84.09375 58.703125 -84.09375 C 68.296875 -84.09375 75.578125 -81.492188 80.546875 -76.296875 C 85.523438 -71.109375 88.015625 -63.617188 88.015625 -53.828125 Z M 88.015625 0 "/></g></g></g><g fill="#ffffff" fill-opacity="1"><g transform="translate(291.527628, 161.794018)"><g><path d="M 33.453125 -44.890625 L 43.265625 -57.453125 L 66.375 -82.546875 L 91.78125 -82.546875 L 59 -46.734375 L 93.765625 0 L 67.78125 0 L 44 -33.453125 L 34.328125 -25.703125 L 34.328125 0 L 11.8125 0 L 11.8125 -114.890625 L 34.328125 -114.890625 L 34.328125 -63.640625 L 33.15625 -44.890625 Z M 33.453125 -44.890625 "/></g></g></g><g fill="#ffffff" fill-opacity="1"><g transform="translate(385.30501, 161.794018)"><g><path d="M 96.796875 0 L 84.25 0 L 84.25 -50.796875 L 27.390625 -50.796875 L 27.390625 0 L 14.84375 0 L 14.84375 -107.953125 L 27.390625 -107.953125 L 27.390625 -62.015625 L 84.25 -62.015625 L 84.25 -107.953125 L 96.796875 -107.953125 Z M 96.796875 0 "/></g></g></g><g fill="#ffffff" fill-opacity="1"><g transform="translate(496.861223, 161.794018)"><g><path d="M 82.84375 -40.53125 C 82.84375 -27.34375 79.519531 -17.039062 72.875 -9.625 C 66.226562 -2.21875 57.050781 1.484375 45.34375 1.484375 C 38.101562 1.484375 31.675781 -0.210938 26.0625 -3.609375 C 20.445312 -7.015625 16.113281 -11.890625 13.0625 -18.234375 C 10.007812 -24.585938 8.484375 -32.019531 8.484375 -40.53125 C 8.484375 -53.726562 11.78125 -64.003906 18.375 -71.359375 C 24.976562 -78.722656 34.140625 -82.40625 45.859375 -82.40625 C 57.171875 -82.40625 66.160156 -78.640625 72.828125 -71.109375 C 79.503906 -63.578125 82.84375 -53.382812 82.84375 -40.53125 Z M 21.1875 -40.53125 C 21.1875 -30.195312 23.253906 -22.320312 27.390625 -16.90625 C 31.523438 -11.488281 37.601562 -8.78125 45.625 -8.78125 C 53.65625 -8.78125 59.75 -11.472656 63.90625 -16.859375 C 68.0625 -22.253906 70.140625 -30.144531 70.140625 -40.53125 C 70.140625 -50.820312 68.0625 -58.632812 63.90625 -63.96875 C 59.75 -69.3125 53.609375 -71.984375 45.484375 -71.984375 C 37.460938 -71.984375 31.40625 -69.347656 27.3125 -64.078125 C 23.226562 -58.816406 21.1875 -50.96875 21.1875 -40.53125 Z M 21.1875 -40.53125 "/></g></g></g><g fill="#ffffff" fill-opacity="1"><g transform="translate(588.188183, 161.794018)"><g><path d="M 39.140625 -8.640625 C 41.296875 -8.640625 43.382812 -8.796875 45.40625 -9.109375 C 47.425781 -9.429688 49.023438 -9.765625 50.203125 -10.109375 L 50.203125 -0.734375 C 48.878906 -0.0976562 46.925781 0.425781 44.34375 0.84375 C 41.757812 1.269531 39.429688 1.484375 37.359375 1.484375 C 21.703125 1.484375 13.875 -6.765625 13.875 -23.265625 L 13.875 -71.40625 L 2.28125 -71.40625 L 2.28125 -77.3125 L 13.875 -82.40625 L 19.046875 -99.6875 L 26.140625 -99.6875 L 26.140625 -80.921875 L 49.625 -80.921875 L 49.625 -71.40625 L 26.140625 -71.40625 L 26.140625 -23.78125 C 26.140625 -18.90625 27.296875 -15.160156 29.609375 -12.546875 C 31.921875 -9.941406 35.097656 -8.640625 39.140625 -8.640625 Z M 39.140625 -8.640625 "/></g></g></g><g fill="#ffffff" fill-opacity="1"><g transform="translate(641.566835, 161.794018)"><g><path d="M 47.1875 1.484375 C 35.21875 1.484375 25.773438 -2.15625 18.859375 -9.4375 C 11.941406 -16.726562 8.484375 -26.847656 8.484375 -39.796875 C 8.484375 -52.835938 11.695312 -63.195312 18.125 -70.875 C 24.550781 -78.5625 33.175781 -82.40625 44 -82.40625 C 54.144531 -82.40625 62.171875 -79.066406 68.078125 -72.390625 C 73.984375 -65.722656 76.9375 -56.925781 76.9375 -46 L 76.9375 -38.25 L 21.1875 -38.25 C 21.4375 -28.75 23.835938 -21.535156 28.390625 -16.609375 C 32.941406 -11.691406 39.351562 -9.234375 47.625 -9.234375 C 56.332031 -9.234375 64.945312 -11.050781 73.46875 -14.6875 L 73.46875 -3.765625 C 69.132812 -1.890625 65.035156 -0.546875 61.171875 0.265625 C 57.304688 1.078125 52.644531 1.484375 47.1875 1.484375 Z M 43.859375 -72.140625 C 37.359375 -72.140625 32.175781 -70.019531 28.3125 -65.78125 C 24.445312 -61.550781 22.171875 -55.695312 21.484375 -48.21875 L 63.796875 -48.21875 C 63.796875 -55.945312 62.070312 -61.863281 58.625 -65.96875 C 55.175781 -70.082031 50.253906 -72.140625 43.859375 -72.140625 Z M 43.859375 -72.140625 "/></g></g></g><g fill="#ffffff" fill-opacity="1"><g transform="translate(726.396809, 161.794018)"><g><path d="M 25.25 0 L 13 0 L 13 -114.890625 L 25.25 -114.890625 Z M 25.25 0 "/></g></g></g><g fill="#ffffff" fill-opacity="1"><g transform="translate(764.64229, 161.794018)"><g/></g></g></g></g><g clip-path="url(#29610f27a1)"><g clip-path="url(#5d8401675b)"><g transform="matrix(1, 0, 0, 1, 284, 700)"><g clip-path="url(#1fe9fc7e00)"><g clip-path="url(#4ce6a15d5d)"><g clip-path="url(#af20b05d93)"><path fill="#ffffff" d="M 0.0664062 0.859375 L 109.109375 0.859375 L 109.109375 109.90625 L 0.0664062 109.90625 Z M 0.0664062 0.859375 " fill-opacity="1" fill-rule="nonzero"/></g></g></g></g></g></g><g clip-path="url(#d4c8a677ff)"><path fill="#1d1d1b" d="M 335.203125 727.664062 C 317.210938 730.113281 315.234375 732.089844 312.78125 750.0625 C 310.328125 732.089844 308.347656 730.113281 290.359375 727.664062 C 308.347656 725.214844 310.328125 723.238281 312.78125 705.265625 C 315.234375 723.238281 317.210938 725.214844 335.203125 727.664062 Z M 335.203125 727.664062 " fill-opacity="1" fill-rule="nonzero"/></g><path fill="#1d1d1b" d="M 327.898438 780.511719 C 317.789062 781.878906 316.667969 782.996094 315.304688 793.09375 C 313.9375 782.996094 312.816406 781.878906 302.707031 780.511719 C 312.816406 779.148438 313.9375 778.027344 315.304688 767.929688 C 316.667969 778.027344 317.789062 779.148438 327.898438 780.511719 Z M 327.898438 780.511719 " fill-opacity="1" fill-rule="nonzero"/><path fill="#1d1d1b" d="M 370.730469 784.292969 C 364.667969 785.113281 364 785.78125 363.179688 791.835938 C 362.355469 785.78125 361.691406 785.113281 355.628906 784.292969 C 361.691406 783.46875 362.355469 782.804688 363.179688 776.75 C 363.984375 782.804688 364.667969 783.46875 370.730469 784.292969 Z M 370.730469 784.292969 " fill-opacity="1" fill-rule="nonzero"/><g clip-path="url(#fb9ad200db)"><path fill="#1d1d1b" d="M 387.109375 759.128906 C 345.398438 761.824219 343.207031 764.011719 340.492188 805.695312 C 337.796875 764.027344 335.605469 761.839844 293.878906 759.128906 C 335.589844 756.433594 337.777344 754.246094 340.492188 712.5625 C 343.191406 754.226562 345.378906 756.414062 387.109375 759.128906 Z M 387.109375 759.128906 " fill-opacity="1" fill-rule="nonzero"/></g></svg>